<svg xmlns="http://www.w3.org/2000/svg" width="1300" height="250" viewBox="0 0 1300 250" font-family="Helvetica, Arial, sans-serif">
<title>main.topology.yaml</title>
<rect x="0" y="0" width="1300" height="250" fill="#ffffff"/>
<defs><marker id="arrow-out" viewBox="0 0 10 10" refX="9" refY="5" markerWidth="7" markerHeight="7" orient="auto-start-reverse"><path d="M0,0 L10,5 L0,10 z" fill="#333"/></marker></defs>
<text x="50" y="50" font-size="18" font-weight="bold" fill="#222">main.topology.yaml</text>
<rect x="50" y="90" width="150" height="80" rx="10" fill="#E69F00" fill-opacity="0.9" stroke="#888888" stroke-width="1.5"/>
<text x="125.0" y="126.0" text-anchor="middle" font-size="15" font-weight="600" fill="#ffffff">controller</text>
<text x="125.0" y="146.0" text-anchor="middle" font-size="10" fill="#ffffff" opacity="0.85">row 0, col 0</text>
<line x1="200.0" y1="130.0" x2="230.0" y2="130.0" stroke="#333" stroke-width="1.5" marker-end="url(#arrow-out)"/>
<text x="230.0" y="122.0" text-anchor="middle" font-size="10" fill="#333">toEast:1</text>
<rect x="260" y="90" width="150" height="80" rx="10" fill="#EDEDED" fill-opacity="1" stroke="#888888" stroke-dasharray="6,4" stroke-width="1.5"/>
<text x="335.0" y="126.0" text-anchor="middle" font-size="15" font-weight="600" fill="#666666">default</text>
<text x="335.0" y="146.0" text-anchor="middle" font-size="10" fill="#666666" opacity="0.85">row 0, col 1</text>
<rect x="470" y="90" width="150" height="80" rx="10" fill="#EDEDED" fill-opacity="1" stroke="#888888" stroke-dasharray="6,4" stroke-width="1.5"/>
<text x="545.0" y="126.0" text-anchor="middle" font-size="15" font-weight="600" fill="#666666">default</text>
<text x="545.0" y="146.0" text-anchor="middle" font-size="10" fill="#666666" opacity="0.85">row 0, col 2</text>
<rect x="680" y="90" width="150" height="80" rx="10" fill="#EDEDED" fill-opacity="1" stroke="#888888" stroke-dasharray="6,4" stroke-width="1.5"/>
<text x="755.0" y="126.0" text-anchor="middle" font-size="15" font-weight="600" fill="#666666">default</text>
<text x="755.0" y="146.0" text-anchor="middle" font-size="10" fill="#666666" opacity="0.85">row 0, col 3</text>
<rect x="890" y="90" width="150" height="80" rx="10" fill="#EDEDED" fill-opacity="1" stroke="#888888" stroke-dasharray="6,4" stroke-width="1.5"/>
<text x="965.0" y="126.0" text-anchor="middle" font-size="15" font-weight="600" fill="#666666">default</text>
<text x="965.0" y="146.0" text-anchor="middle" font-size="10" fill="#666666" opacity="0.85">row 0, col 4</text>
<rect x="1100" y="90" width="150" height="80" rx="10" fill="#56B4E9" fill-opacity="0.9" stroke="#888888" stroke-width="1.5"/>
<text x="1175.0" y="126.0" text-anchor="middle" font-size="15" font-weight="600" fill="#ffffff">rowEnd</text>
<text x="1175.0" y="146.0" text-anchor="middle" font-size="10" fill="#ffffff" opacity="0.85">row 0, col 5</text>
<line x1="1100.0" y1="130.0" x2="1070.0" y2="130.0" stroke="#333" stroke-width="1.5" marker-end="url(#arrow-out)"/>
<text x="1070.0" y="122.0" text-anchor="middle" font-size="10" fill="#333">toWest:3</text>
<text x="50" y="194" font-size="11" fill="#555">Legend:</text>
<rect x="110" y="184" width="12" height="12" rx="2" fill="#E69F00"/>
<text x="126" y="194" font-size="11" fill="#333">controller</text>
<rect x="236" y="184" width="12" height="12" rx="2" fill="#56B4E9"/>
<text x="252" y="194" font-size="11" fill="#333">rowEnd</text>
</svg>